<svg xmlns="http://www.w3.org/2000/svg" width="1200" height="630" viewBox="0 0 1200 630" fill="none">
  <defs>
    <linearGradient id="bg" x1="0" y1="0" x2="1200" y2="630" gradientUnits="userSpaceOnUse">
      <stop stop-color="#09111D"/>
      <stop offset="0.5" stop-color="#0C1830"/>
      <stop offset="1" stop-color="#0A1224"/>
    </linearGradient>
    <linearGradient id="band" x1="0" y1="220" x2="1200" y2="420" gradientUnits="userSpaceOnUse">
      <stop stop-color="#0A1630"/>
      <stop offset="0.45" stop-color="#123A6B"/>
      <stop offset="1" stop-color="#081D39"/>
    </linearGradient>
    <linearGradient id="textGlow" x1="200" y1="0" x2="740" y2="0" gradientUnits="userSpaceOnUse">
      <stop stop-color="#FFFFFF"/>
      <stop offset="1" stop-color="#D9E9FF"/>
    </linearGradient>
    <linearGradient id="logoBlue" x1="0" y1="0" x2="1" y2="1">
      <stop stop-color="#A9E3FF"/>
      <stop offset="1" stop-color="#4AA8FF"/>
    </linearGradient>
    <linearGradient id="logoGold" x1="0" y1="0" x2="1" y2="1">
      <stop stop-color="#FFD873"/>
      <stop offset="1" stop-color="#C08A12"/>
    </linearGradient>
    <radialGradient id="orbCore" cx="0" cy="0" r="1" gradientUnits="userSpaceOnUse" gradientTransform="translate(987 315) rotate(90) scale(72 72)">
      <stop stop-color="#FFD28C"/>
      <stop offset="0.35" stop-color="#FFB44C"/>
      <stop offset="0.7" stop-color="#46D6FF"/>
      <stop offset="1" stop-color="#0A2446" stop-opacity="0"/>
    </radialGradient>
    <radialGradient id="orbHalo" cx="0" cy="0" r="1" gradientUnits="userSpaceOnUse" gradientTransform="translate(985 312) rotate(90) scale(140 140)">
      <stop stop-color="#5ED3FF" stop-opacity="0.9"/>
      <stop offset="0.45" stop-color="#1E90FF" stop-opacity="0.35"/>
      <stop offset="1" stop-color="#0B1730" stop-opacity="0"/>
    </radialGradient>
    <filter id="softGlow" x="-50%" y="-50%" width="200%" height="200%">
      <feGaussianBlur stdDeviation="8" result="blur"/>
      <feMerge>
        <feMergeNode in="blur"/>
        <feMergeNode in="SourceGraphic"/>
      </feMerge>
    </filter>
    <filter id="strongGlow" x="-50%" y="-50%" width="200%" height="200%">
      <feGaussianBlur stdDeviation="18" result="blur"/>
      <feMerge>
        <feMergeNode in="blur"/>
        <feMergeNode in="SourceGraphic"/>
      </feMerge>
    </filter>
  </defs>

  <rect width="1200" height="630" fill="url(#bg)"/>
  <rect y="210" width="1200" height="220" fill="url(#band)"/>

  <g opacity="0.22" stroke="#4FCBFF" stroke-width="1">
    <path d="M0 340C120 298 206 286 330 306C472 329 564 388 690 389C841 390 960 311 1200 270"/>
    <path d="M0 382C140 350 224 344 334 360C462 379 556 431 684 430C840 430 992 336 1200 309"/>
    <path d="M40 430C170 409 280 409 390 427C507 446 614 474 724 470C850 465 970 403 1138 364"/>
  </g>

  <g opacity="0.14" stroke="#7DCCFF" stroke-width="1">
    <path d="M0 250H1200"/>
    <path d="M0 390H1200"/>
    <path d="M110 210V430"/>
    <path d="M260 210V430"/>
    <path d="M410 210V430"/>
    <path d="M560 210V430"/>
    <path d="M710 210V430"/>
    <path d="M860 210V430"/>
    <path d="M1010 210V430"/>
  </g>

  <g transform="translate(74 220)">
    <circle cx="88" cy="95" r="80" fill="none" stroke="#1E3A5F" stroke-width="8" opacity="0.22"/>
    <path d="M 26 147 Q 14 105 36 74 Q 58 42 88 37 Q 120 31 136 58 Q 148 78 131 94" fill="none" stroke="url(#logoBlue)" stroke-width="16" stroke-linecap="round" opacity="0.98"/>
    <path d="M 88 26 Q 88 54 71 79 Q 56 103 71 127 Q 88 149 88 177" fill="none" stroke="url(#logoBlue)" stroke-width="16" stroke-linecap="round"/>
    <path d="M 150 147 Q 162 105 140 74 Q 118 42 88 37 Q 56 31 40 58 Q 28 78 45 94" fill="none" stroke="url(#logoBlue)" stroke-width="16" stroke-linecap="round" opacity="0.98"/>
    <circle cx="88" cy="90" r="14" fill="url(#logoGold)" filter="url(#softGlow)"/>
    <circle cx="88" cy="90" r="8" fill="#102038"/>
    <circle cx="88" cy="90" r="4" fill="url(#logoGold)"/>
    <circle cx="42" cy="68" r="4.5" fill="url(#logoGold)" opacity="0.9"/>
    <circle cx="134" cy="68" r="4.5" fill="url(#logoGold)" opacity="0.9"/>
    <circle cx="88" cy="147" r="4.5" fill="url(#logoGold)" opacity="0.9"/>
  </g>

  <g transform="translate(250 250)">
    <text x="0" y="0" fill="url(#textGlow)" font-family="Arial, Helvetica, sans-serif" font-size="72" font-weight="700">NornicDB</text>
    <text x="0" y="52" fill="#F3F7FF" font-family="Arial, Helvetica, sans-serif" font-size="30" font-weight="600">Achieving Psygnosis for AI</text>
    <text x="0" y="94" fill="#9CC2E9" font-family="Arial, Helvetica, sans-serif" font-size="21">Neo4j and qDrant driver-compatible</text>
    <text x="0" y="117" fill="#9CC2E9" font-family="Arial, Helvetica, sans-serif" font-size="21">(Bolt, HTTP, and gRPC)</text>
    <text x="0" y="140" fill="#9CC2E9" font-family="Arial, Helvetica, sans-serif" font-size="21">MIT Licensed</text>
  </g>

  <g transform="translate(822 174)">
    <circle cx="164" cy="138" r="144" fill="url(#orbHalo)"/>
    <circle cx="164" cy="138" r="86" fill="url(#orbCore)" filter="url(#strongGlow)"/>
    <circle cx="164" cy="138" r="96" fill="none" stroke="#B3E7FF" stroke-opacity="0.65" stroke-width="3"/>
    <circle cx="164" cy="138" r="112" fill="none" stroke="#5CCBFF" stroke-opacity="0.35" stroke-width="2"/>
    <path d="M104 94C132 72 194 74 223 103C250 129 250 189 218 214C189 238 140 237 112 213C82 188 79 125 104 94Z" fill="none" stroke="#87D7FF" stroke-opacity="0.7" stroke-width="2"/>
    <path d="M120 110C148 93 180 94 203 118C225 140 226 173 205 195C183 219 149 222 121 206" fill="none" stroke="#3BB7FF" stroke-opacity="0.8" stroke-width="1.5"/>
    <path d="M164 43V234" stroke="#72CFFF" stroke-opacity="0.18"/>
    <path d="M69 138H259" stroke="#72CFFF" stroke-opacity="0.18"/>
    <circle cx="164" cy="138" r="18" fill="#FFD28C" filter="url(#softGlow)"/>
    <circle cx="164" cy="138" r="8" fill="#FFF5D6"/>
    <circle cx="123" cy="99" r="4" fill="#9EE7FF"/>
    <circle cx="206" cy="103" r="3.5" fill="#9EE7FF"/>
    <circle cx="211" cy="177" r="4.5" fill="#72CFFF"/>
    <circle cx="132" cy="191" r="3.5" fill="#72CFFF"/>
    <path d="M84 78C107 76 118 74 139 65" stroke="#82E0FF" stroke-opacity="0.5" stroke-width="2"/>
    <path d="M195 65C224 74 243 84 259 100" stroke="#82E0FF" stroke-opacity="0.5" stroke-width="2"/>
    <path d="M242 171C236 195 219 218 198 231" stroke="#82E0FF" stroke-opacity="0.5" stroke-width="2"/>
  </g>

  <g transform="translate(820 248)">
    <rect x="-50" y="-10" width="186" height="50" rx="10" fill="#294A6D" fill-opacity="0.88" stroke="#CFEAFF" stroke-opacity="0.7"/>
    <text x="45" y="20" text-anchor="middle" fill="white" font-family="Arial, Helvetica, sans-serif" font-size="24" font-weight="700">LLM Inferrence</text>
    <rect x="150" y="-40" width="144" height="50" rx="10" fill="#294A6D" fill-opacity="0.88" stroke="#CFEAFF" stroke-opacity="0.7"/>
    <text x="220" y="-10" text-anchor="middle" fill="white" font-family="Arial, Helvetica, sans-serif" font-size="24" font-weight="700">Llama.cpp</text>
    <rect x="-18" y="78" width="118" height="50" rx="10" fill="#294A6D" fill-opacity="0.88" stroke="#CFEAFF" stroke-opacity="0.7"/>
    <text x="41" y="110" text-anchor="middle" fill="white" font-family="Arial, Helvetica, sans-serif" font-size="22" font-weight="700">Graph</text>
    <rect x="112" y="96" width="124" height="50" rx="10" fill="#294A6D" fill-opacity="0.88" stroke="#CFEAFF" stroke-opacity="0.7"/>
    <text x="174" y="128" text-anchor="middle" fill="white" font-family="Arial, Helvetica, sans-serif" font-size="22" font-weight="700">Vector</text>
    <rect x="10" y="160" width="214" height="50" rx="10" fill="#294A6D" fill-opacity="0.88" stroke="#CFEAFF" stroke-opacity="0.7"/>
    <text x="117" y="190" text-anchor="middle" fill="white" font-family="Arial, Helvetica, sans-serif" font-size="22" font-weight="700">Memory Decay</text>
  </g>
</svg>
